<svg xmlns="http://www.w3.org/2000/svg" xmlns:xlink="http://www.w3.org/1999/xlink" viewBox="0 0 1100 640" width="1100" height="640" role="img" aria-label="Animated pixel art virtual office with AI agents">
  <defs>
    <linearGradient id="floorGlow" x1="0" y1="0" x2="1" y2="1">
      <stop offset="0" stop-color="#18324a"/>
      <stop offset="0.45" stop-color="#101827"/>
      <stop offset="1" stop-color="#3b2119"/>
    </linearGradient>
    <pattern id="wood" width="56" height="32" patternUnits="userSpaceOnUse">
      <rect width="56" height="32" fill="#8b4f2f"/>
      <path d="M0 31 h56 M0 15 h56 M14 0 v15 M42 16 v16" stroke="#6f3b24" stroke-width="2" opacity="0.8"/>
      <path d="M8 7 q12 -6 24 0 M28 24 q9 -5 20 0" stroke="#b86a3f" stroke-width="1.5" fill="none" opacity="0.55"/>
    </pattern>
    <filter id="softGlow" x="-40%" y="-40%" width="180%" height="180%">
      <feGaussianBlur stdDeviation="4" result="blur"/>
      <feMerge><feMergeNode in="blur"/><feMergeNode in="SourceGraphic"/></feMerge>
    </filter>
  </defs>
  <style><![CDATA[
    @media (prefers-reduced-motion: no-preference) {
      .screen-pulse { animation: screenPulse 1.8s linear infinite; }
      .sprite-wrap, .agent-sprite { animation: float 2.4s linear infinite; }
      .arm-left { animation: typeLeft 0.55s steps(2) infinite; transform-origin: 10px 36px; }
      .arm-right { animation: typeRight 0.55s steps(2) infinite; transform-origin: 38px 36px; }
      .leg-left { animation: walkLegA 0.45s steps(2) infinite; transform-origin: 18px 64px; }
      .leg-right { animation: walkLegB 0.45s steps(2) infinite; transform-origin: 31px 64px; }
      .idle-ring { animation: idlePulse 2s linear infinite; }
      .active-aura { animation: activePulse 0.55s linear infinite; filter: url(#softGlow); }
      .active-aura.slow { animation-duration: 1.1s; }
      .completed-badge { animation: badgePop 30s linear forwards; }
      .dot-one { animation: thinkDot 1.4s linear infinite; }
      .dot-two { animation: thinkDot 1.4s linear infinite 0.25s; }
      .dot-three { animation: thinkDot 1.4s linear infinite 0.5s; }
      .master-orbit { transform-origin: 85px 22px; animation: spin 9s linear infinite; }
      .data-flow { animation: dash 1.3s linear infinite; }
      .ticker-text { animation: ticker 29.4s linear infinite; }
      .fan { transform-origin: center; animation: spin 3.5s linear infinite; }
      .blink { animation: blink 2.8s steps(2) infinite; }
    }
    @keyframes screenPulse { 0%,100%{opacity:.68} 50%{opacity:1;filter:drop-shadow(0 0 10px currentColor)} }
    @keyframes float { 0%,100%{transform:translateY(0)} 50%{transform:translateY(-4px)} }
    @keyframes typeLeft { 0%,100%{transform:rotate(0deg)} 50%{transform:rotate(8deg)} }
    @keyframes typeRight { 0%,100%{transform:rotate(0deg)} 50%{transform:rotate(-8deg)} }
    @keyframes walkLegA { 0%,100%{transform:rotate(0deg)} 50%{transform:rotate(10deg)} }
    @keyframes walkLegB { 0%,100%{transform:rotate(10deg)} 50%{transform:rotate(0deg)} }
    @keyframes idlePulse { 0%,100%{opacity:.25} 50%{opacity:.7} }
    @keyframes activePulse { 0%,100%{opacity:.55;stroke-width:3} 50%{opacity:1;stroke-width:6} }
    @keyframes badgePop { 0%,88%{opacity:1;transform:scale(1)} 92%{transform:scale(1.15)} 100%{opacity:0;transform:scale(.8)} }
    @keyframes thinkDot { 0%,100%{opacity:.15} 50%{opacity:1} }
    @keyframes spin { to{transform:rotate(360deg)} }
    @keyframes dash { to{stroke-dashoffset:-68} }
    @keyframes ticker { from{transform:translateX(1100px)} to{transform:translateX(-1300px)} }
    @keyframes blink { 0%,80%,100%{opacity:1} 82%,88%{opacity:.2} }
    .title { font: 900 34px Consolas, Monaco, monospace; fill:#f8fafc; letter-spacing:3px; text-anchor:middle; }
    .subtitle { font: 700 13px Consolas, Monaco, monospace; fill:#9fb3c8; text-anchor:middle; letter-spacing:1px; }
    .agent-label { font: 900 15px Consolas, Monaco, monospace; fill:#f8fafc; text-anchor:middle; letter-spacing:1px; }
    .role-label { font: 700 10px Consolas, Monaco, monospace; fill:#cbd5e1; text-anchor:middle; }
    .counter-text { font: 800 10px Consolas, Monaco, monospace; fill:#9fb3c8; text-anchor:middle; }
    .bubble-title { font: 900 8px Consolas, Monaco, monospace; fill:#334155; text-anchor:middle; }
    .bubble-copy { font: 700 10px Consolas, Monaco, monospace; fill:#111827; text-anchor:middle; }
    .tiny { font: 700 10px Consolas, Monaco, monospace; fill:#dbeafe; text-anchor:middle; }
    .ticker-text { font: 800 16px Consolas, Monaco, monospace; fill:#7dd3fc; }
    a { cursor:pointer; }
    a:hover rect.hover-outline { opacity: 0.4; }
    @keyframes bubble-fadeout { 0%,85%{opacity:1} 100%{opacity:0} }
    .speech-bubble { animation: bubble-fadeout 1800s linear forwards; }
  ]]></style>

  <rect width="1100" height="640" fill="#080b12"/>
  <rect x="30" y="58" width="1040" height="528" rx="18" fill="url(#floorGlow)" stroke="#26334a" stroke-width="6"/>
  <rect x="52" y="92" width="996" height="470" fill="url(#wood)" opacity="0.96"/>
  <path d="M52 92 h996 v470 h-996z" fill="none" stroke="#3e536f" stroke-width="4" opacity="0.65"/>

  <g opacity="0.95">
    <rect x="72" y="105" width="94" height="58" fill="#111827" stroke="#2f3b52" stroke-width="4"/>
    <rect x="83" y="116" width="72" height="36" fill="#123b5d"/>
    <path d="M91 143 h55 M92 132 h38 M92 123 h48" stroke="#67e8f9" stroke-width="3" class="blink"/>
    <rect x="928" y="104" width="94" height="58" fill="#111827" stroke="#2f3b52" stroke-width="4"/>
    <rect x="939" y="115" width="72" height="36" fill="#173b25"/>
    <path d="M948 126 h50 M948 137 h38 M948 146 h58" stroke="#86efac" stroke-width="3" class="blink"/>
    <g class="fan" transform="translate(548 117)">
      <circle cx="0" cy="0" r="15" fill="#172033" stroke="#6b7b94" stroke-width="3"/>
      <path d="M0 -4 l58 -9 l3 16 l-61 7z M0 4 l-58 9 l-3 -16 l61 -7z M-4 0 l-9 -58 l16 -3 l7 61z M4 0 l9 58 l-16 3 l-7 -61z" fill="#5d728e" opacity="0.75"/>
      <circle cx="0" cy="0" r="5" fill="#dbeafe"/>
    </g>
  </g>

  <text x="550" y="39" class="title">GITHUB VIRTUAL AGENT OFFICE</text>
  <text x="550" y="61" class="subtitle">Animated SVG preview - click works when the SVG is opened directly; README image links to the live chat room</text>

  <g class="data-layer" opacity="0.9">
    <path d="M250 215 L410 215 L505 294" fill="none" stroke="#5eead4" stroke-width="5" stroke-linecap="square" stroke-dasharray="18 16" class="data-flow" style="animation-delay:0s"/>
    <path d="M720 215 L615 215 L560 294" fill="none" stroke="#67e8f9" stroke-width="5" stroke-linecap="square" stroke-dasharray="18 16" class="data-flow" style="animation-delay:.25s"/>
    <path d="M295 472 L420 430 L503 345" fill="none" stroke="#c4b5fd" stroke-width="5" stroke-linecap="square" stroke-dasharray="18 16" class="data-flow" style="animation-delay:.5s"/>
    <path d="M780 472 L650 430 L570 346" fill="none" stroke="#fdba74" stroke-width="5" stroke-linecap="square" stroke-dasharray="18 16" class="data-flow" style="animation-delay:.75s"/>
    <polygon points="410,215 392,205 392,225" fill="#5eead4"/>
    <polygon points="615,215 633,205 633,225" fill="#67e8f9"/>
    <polygon points="420,430 401,425 411,444" fill="#c4b5fd"/>
    <polygon points="650,430 668,424 659,444" fill="#fdba74"/>
  </g>

  <g class="office-props">
    <rect x="486" y="104" width="126" height="82" rx="8" fill="#2b3548" stroke="#111827" stroke-width="5"/>
    <rect x="500" y="117" width="38" height="55" fill="#111827"/><rect x="559" y="117" width="38" height="55" fill="#111827"/>
    <rect x="511" y="128" width="16" height="34" fill="#67e8f9" opacity="0.7"/><rect x="570" y="128" width="16" height="34" fill="#fca5a5" opacity="0.7"/>
    <rect x="523" y="420" width="58" height="86" rx="8" fill="#1f2937" stroke="#111827" stroke-width="5"/>
    <rect x="535" y="432" width="34" height="12" fill="#475569"/><rect x="535" y="454" width="34" height="12" fill="#475569"/><rect x="535" y="476" width="34" height="12" fill="#475569"/>
    <circle cx="88" cy="548" r="18" fill="#1f2937"/><path d="M78 546 q10 -20 22 0" stroke="#6ee7b7" stroke-width="5" fill="none"/>
    <circle cx="1016" cy="548" r="18" fill="#1f2937"/><path d="M1006 546 q10 -20 22 0" stroke="#f9a8d4" stroke-width="5" fill="none"/>
  </g>

  
  <a href="https://github.com/RJScripts-24/RJScripts-24/issues/new?template=query_template.yml&amp;labels=ask-agent,ask-master&amp;title=Query%20for%20Master%20Agent%3A%20" xlink:href="https://github.com/RJScripts-24/RJScripts-24/issues/new?template=query_template.yml&amp;labels=ask-agent,ask-master&amp;title=Query%20for%20Master%20Agent%3A%20" target="_blank" rel="noopener">
    <g class="station station-master" transform="translate(475 260)">
      <rect class="hover-outline" x="-28" y="-98" width="236" height="302" rx="10" fill="transparent" stroke="#FFD700" stroke-width="2" opacity="0" pointer-events="none"/>
      <g class="master-orbit" transform="translate(85 22)">
        <ellipse cx="0" cy="0" rx="110" ry="72" fill="none" stroke="#ffd700" stroke-width="4" stroke-dasharray="16 12" opacity="0.9"/>
        <circle cx="110" cy="0" r="7" fill="#fff0a0"/>
      </g>
      
      <rect x="22" y="-28" width="132" height="30" rx="3" fill="#0b0f17" stroke="#FFD700" stroke-width="3"/>
      <text x="88" y="-8" class="agent-label">MASTER_AGENT</text>
      <text x="88" y="168" class="role-label">Orchestrator - routes queries and synthe...</text>
      <g class="counter">
        <rect x="36" y="14" width="104" height="21" rx="10" fill="#101826" stroke="#2f3b52"/>
        <text x="88" y="29" class="counter-text">RESOLVED 0</text>
      </g>
      <circle cx="83" cy="11" r="34" fill="none" stroke="#FFD700" stroke-width="3" class="idle-ring"/>
      <ellipse cx="86" cy="156" rx="68" ry="14" fill="#111827" opacity="0.42"/>
      <rect x="18" y="55" width="140" height="80" rx="8" fill="#8b4f2f" stroke="#2e1d18" stroke-width="5"/>
      <rect x="18" y="55" width="140" height="17" fill="#b8693d" opacity="0.82"/>
      <path d="M28 89 h120 M28 113 h120" stroke="#63331f" stroke-width="3" opacity="0.65"/>
      <rect x="36" y="126" width="18" height="26" fill="#4b2a1d"/>
      <rect x="123" y="126" width="18" height="26" fill="#4b2a1d"/>
      <rect x="54" y="74" width="64" height="38" rx="4" fill="#151b28" stroke="#293548" stroke-width="4"/>
      <rect x="61" y="81" width="50" height="24" fill="#FFD700" class="screen-pulse"/>
      <rect x="78" y="113" width="18" height="8" fill="#293548"/>
      <rect x="61" y="122" width="51" height="8" fill="#151b28"/>
      <rect x="55" y="139" width="62" height="6" fill="#172033"/>
      <rect x="124" y="80" width="19" height="14" fill="#f5f1df"/>
      <path d="M127 86 h12 M127 91 h9" stroke="#334155" stroke-width="2"/>
      <circle cx="132" cy="111" r="8" fill="#67e8f9" opacity="0.72"/>
      <path d="M140 111 q9 -7 13 2" fill="none" stroke="#67e8f9" stroke-width="4" opacity="0.72"/>
      <rect x="-3" y="66" width="45" height="82" fill="#243044"/><rect x="2" y="75" width="35" height="42" fill="#121826"/><rect x="8" y="82" width="23" height="26" fill="#FFD700" class="screen-pulse"/>
      <g class="sprite-wrap" transform="translate(62 -20)">
        
    <g class="agent-sprite" transform="scale(1)">
      <rect x="21" y="-7" width="5" height="9" fill="#ffe66d"/><rect x="19" y="-11" width="9" height="5" fill="#fff3a6"/>
      <rect x="12" y="2" width="24" height="23" fill="#223047"/>
      <rect x="15" y="8" width="18" height="17" fill="#ffd7a8"/>
      <rect x="18" y="15" width="4" height="4" fill="#111827"/>
      <rect x="28" y="15" width="4" height="4" fill="#111827"/>
      <rect x="18" y="25" width="14" height="5" fill="#152033" opacity="0.55"/>
      <rect x="11" y="31" width="26" height="32" fill="#FFD700"/>
      <rect x="6" y="35" width="8" height="24" fill="#FFD700" class="arm-left"/>
      <rect x="34" y="35" width="8" height="24" fill="#FFD700" class="arm-right"/>
      <rect x="14" y="63" width="8" height="19" fill="#151b28" class="leg-left"/>
      <rect x="27" y="63" width="8" height="19" fill="#151b28" class="leg-right"/>
      <rect x="11" y="82" width="12" height="5" fill="#0b0f17"/>
      <rect x="26" y="82" width="12" height="5" fill="#0b0f17"/>
    </g>
      </g>
    </g>
  </a>

  <a href="https://github.com/RJScripts-24/RJScripts-24/issues/new?template=query_template.yml&amp;labels=ask-agent,ask-frontend&amp;title=Query%20for%20Frontend%20Agent%3A%20" xlink:href="https://github.com/RJScripts-24/RJScripts-24/issues/new?template=query_template.yml&amp;labels=ask-agent,ask-frontend&amp;title=Query%20for%20Frontend%20Agent%3A%20" target="_blank" rel="noopener">
    <g class="station station-frontend" transform="translate(145 150)">
      <rect class="hover-outline" x="-28" y="-98" width="236" height="302" rx="10" fill="transparent" stroke="#61DAFB" stroke-width="2" opacity="0" pointer-events="none"/>
      
      
      <rect x="22" y="-28" width="132" height="30" rx="3" fill="#0b0f17" stroke="#61DAFB" stroke-width="3"/>
      <text x="88" y="-8" class="agent-label">FRONTEND_AGENT</text>
      <text x="88" y="168" class="role-label">Frontend specialist - React, UI, CSS, ac...</text>
      <g class="counter">
        <rect x="36" y="14" width="104" height="21" rx="10" fill="#101826" stroke="#2f3b52"/>
        <text x="88" y="29" class="counter-text">RESOLVED 0</text>
      </g>
      <circle cx="83" cy="11" r="34" fill="none" stroke="#61DAFB" stroke-width="3" class="idle-ring"/>
      <ellipse cx="86" cy="156" rx="68" ry="14" fill="#111827" opacity="0.42"/>
      <rect x="18" y="55" width="140" height="80" rx="8" fill="#8b4f2f" stroke="#2e1d18" stroke-width="5"/>
      <rect x="18" y="55" width="140" height="17" fill="#b8693d" opacity="0.82"/>
      <path d="M28 89 h120 M28 113 h120" stroke="#63331f" stroke-width="3" opacity="0.65"/>
      <rect x="36" y="126" width="18" height="26" fill="#4b2a1d"/>
      <rect x="123" y="126" width="18" height="26" fill="#4b2a1d"/>
      <rect x="54" y="74" width="64" height="38" rx="4" fill="#151b28" stroke="#293548" stroke-width="4"/>
      <rect x="61" y="81" width="50" height="24" fill="#61DAFB" class="screen-pulse"/>
      <rect x="78" y="113" width="18" height="8" fill="#293548"/>
      <rect x="61" y="122" width="51" height="8" fill="#151b28"/>
      <rect x="55" y="139" width="62" height="6" fill="#172033"/>
      <rect x="124" y="80" width="19" height="14" fill="#f5f1df"/>
      <path d="M127 86 h12 M127 91 h9" stroke="#334155" stroke-width="2"/>
      <circle cx="132" cy="111" r="8" fill="#67e8f9" opacity="0.72"/>
      <path d="M140 111 q9 -7 13 2" fill="none" stroke="#67e8f9" stroke-width="4" opacity="0.72"/>
      <rect x="-3" y="66" width="45" height="82" fill="#243044"/><rect x="2" y="75" width="35" height="42" fill="#121826"/><rect x="8" y="82" width="23" height="26" fill="#61DAFB" class="screen-pulse"/>
      <g class="sprite-wrap" transform="translate(62 -20)">
        
    <g class="agent-sprite" transform="scale(1)">
      
      <rect x="12" y="2" width="24" height="23" fill="#223047"/>
      <rect x="15" y="8" width="18" height="17" fill="#ffd7a8"/>
      <rect x="18" y="15" width="4" height="4" fill="#111827"/>
      <rect x="28" y="15" width="4" height="4" fill="#111827"/>
      <rect x="18" y="25" width="14" height="5" fill="#152033" opacity="0.55"/>
      <rect x="11" y="31" width="26" height="32" fill="#61DAFB"/>
      <rect x="6" y="35" width="8" height="24" fill="#61DAFB" class="arm-left"/>
      <rect x="34" y="35" width="8" height="24" fill="#61DAFB" class="arm-right"/>
      <rect x="14" y="63" width="8" height="19" fill="#151b28" class="leg-left"/>
      <rect x="27" y="63" width="8" height="19" fill="#151b28" class="leg-right"/>
      <rect x="11" y="82" width="12" height="5" fill="#0b0f17"/>
      <rect x="26" y="82" width="12" height="5" fill="#0b0f17"/>
    </g>
      </g>
    </g>
  </a>

  <a href="https://github.com/RJScripts-24/RJScripts-24/issues/new?template=query_template.yml&amp;labels=ask-agent,ask-backend&amp;title=Query%20for%20Backend%20Agent%3A%20" xlink:href="https://github.com/RJScripts-24/RJScripts-24/issues/new?template=query_template.yml&amp;labels=ask-agent,ask-backend&amp;title=Query%20for%20Backend%20Agent%3A%20" target="_blank" rel="noopener">
    <g class="station station-backend" transform="translate(790 150)">
      <rect class="hover-outline" x="-28" y="-98" width="236" height="302" rx="10" fill="transparent" stroke="#68D391" stroke-width="2" opacity="0" pointer-events="none"/>
      
      
      <rect x="22" y="-28" width="132" height="30" rx="3" fill="#0b0f17" stroke="#68D391" stroke-width="3"/>
      <text x="88" y="-8" class="agent-label">BACKEND_AGENT</text>
      <text x="88" y="168" class="role-label">Backend specialist - APIs, auth, service...</text>
      <g class="counter">
        <rect x="36" y="14" width="104" height="21" rx="10" fill="#101826" stroke="#2f3b52"/>
        <text x="88" y="29" class="counter-text">RESOLVED 0</text>
      </g>
      <circle cx="83" cy="11" r="34" fill="none" stroke="#68D391" stroke-width="3" class="idle-ring"/>
      <ellipse cx="86" cy="156" rx="68" ry="14" fill="#111827" opacity="0.42"/>
      <rect x="18" y="55" width="140" height="80" rx="8" fill="#8b4f2f" stroke="#2e1d18" stroke-width="5"/>
      <rect x="18" y="55" width="140" height="17" fill="#b8693d" opacity="0.82"/>
      <path d="M28 89 h120 M28 113 h120" stroke="#63331f" stroke-width="3" opacity="0.65"/>
      <rect x="36" y="126" width="18" height="26" fill="#4b2a1d"/>
      <rect x="123" y="126" width="18" height="26" fill="#4b2a1d"/>
      <rect x="54" y="74" width="64" height="38" rx="4" fill="#151b28" stroke="#293548" stroke-width="4"/>
      <rect x="61" y="81" width="50" height="24" fill="#68D391" class="screen-pulse"/>
      <rect x="78" y="113" width="18" height="8" fill="#293548"/>
      <rect x="61" y="122" width="51" height="8" fill="#151b28"/>
      <rect x="55" y="139" width="62" height="6" fill="#172033"/>
      <rect x="124" y="80" width="19" height="14" fill="#f5f1df"/>
      <path d="M127 86 h12 M127 91 h9" stroke="#334155" stroke-width="2"/>
      <circle cx="132" cy="111" r="8" fill="#67e8f9" opacity="0.72"/>
      <path d="M140 111 q9 -7 13 2" fill="none" stroke="#67e8f9" stroke-width="4" opacity="0.72"/>
      <rect x="128" y="66" width="45" height="82" fill="#243044"/><rect x="133" y="75" width="35" height="42" fill="#121826"/><rect x="139" y="82" width="23" height="26" fill="#68D391" class="screen-pulse"/>
      <g class="sprite-wrap" transform="translate(62 -20)">
        
    <g class="agent-sprite" transform="scale(1)">
      
      <rect x="12" y="2" width="24" height="23" fill="#223047"/>
      <rect x="15" y="8" width="18" height="17" fill="#ffd7a8"/>
      <rect x="18" y="15" width="4" height="4" fill="#111827"/>
      <rect x="28" y="15" width="4" height="4" fill="#111827"/>
      <rect x="18" y="25" width="14" height="5" fill="#152033" opacity="0.55"/>
      <rect x="11" y="31" width="26" height="32" fill="#68D391"/>
      <rect x="6" y="35" width="8" height="24" fill="#68D391" class="arm-left"/>
      <rect x="34" y="35" width="8" height="24" fill="#68D391" class="arm-right"/>
      <rect x="14" y="63" width="8" height="19" fill="#151b28" class="leg-left"/>
      <rect x="27" y="63" width="8" height="19" fill="#151b28" class="leg-right"/>
      <rect x="11" y="82" width="12" height="5" fill="#0b0f17"/>
      <rect x="26" y="82" width="12" height="5" fill="#0b0f17"/>
    </g>
      </g>
    </g>
  </a>

  <a href="https://github.com/RJScripts-24/RJScripts-24/issues/new?template=query_template.yml&amp;labels=ask-agent,ask-database&amp;title=Query%20for%20Database%20Agent%3A%20" xlink:href="https://github.com/RJScripts-24/RJScripts-24/issues/new?template=query_template.yml&amp;labels=ask-agent,ask-database&amp;title=Query%20for%20Database%20Agent%3A%20" target="_blank" rel="noopener">
    <g class="station station-database" transform="translate(175 430)">
      <rect class="hover-outline" x="-28" y="-98" width="236" height="302" rx="10" fill="transparent" stroke="#B794F4" stroke-width="2" opacity="0" pointer-events="none"/>
      
      
      <rect x="22" y="-28" width="132" height="30" rx="3" fill="#0b0f17" stroke="#B794F4" stroke-width="3"/>
      <text x="88" y="-8" class="agent-label">DATABASE_AGENT</text>
      <text x="88" y="168" class="role-label">Database specialist - schema, queries, i...</text>
      <g class="counter">
        <rect x="36" y="14" width="104" height="21" rx="10" fill="#101826" stroke="#2f3b52"/>
        <text x="88" y="29" class="counter-text">RESOLVED 0</text>
      </g>
      <circle cx="83" cy="11" r="34" fill="none" stroke="#B794F4" stroke-width="3" class="idle-ring"/>
      <ellipse cx="86" cy="156" rx="68" ry="14" fill="#111827" opacity="0.42"/>
      <rect x="18" y="55" width="140" height="80" rx="8" fill="#8b4f2f" stroke="#2e1d18" stroke-width="5"/>
      <rect x="18" y="55" width="140" height="17" fill="#b8693d" opacity="0.82"/>
      <path d="M28 89 h120 M28 113 h120" stroke="#63331f" stroke-width="3" opacity="0.65"/>
      <rect x="36" y="126" width="18" height="26" fill="#4b2a1d"/>
      <rect x="123" y="126" width="18" height="26" fill="#4b2a1d"/>
      <rect x="54" y="74" width="64" height="38" rx="4" fill="#151b28" stroke="#293548" stroke-width="4"/>
      <rect x="61" y="81" width="50" height="24" fill="#B794F4" class="screen-pulse"/>
      <rect x="78" y="113" width="18" height="8" fill="#293548"/>
      <rect x="61" y="122" width="51" height="8" fill="#151b28"/>
      <rect x="55" y="139" width="62" height="6" fill="#172033"/>
      <rect x="124" y="80" width="19" height="14" fill="#f5f1df"/>
      <path d="M127 86 h12 M127 91 h9" stroke="#334155" stroke-width="2"/>
      <circle cx="132" cy="111" r="8" fill="#67e8f9" opacity="0.72"/>
      <path d="M140 111 q9 -7 13 2" fill="none" stroke="#67e8f9" stroke-width="4" opacity="0.72"/>
      <rect x="-3" y="66" width="45" height="82" fill="#243044"/><rect x="2" y="75" width="35" height="42" fill="#121826"/><rect x="8" y="82" width="23" height="26" fill="#B794F4" class="screen-pulse"/>
      <g class="sprite-wrap" transform="translate(62 -20)">
        
    <g class="agent-sprite" transform="scale(1)">
      
      <rect x="12" y="2" width="24" height="23" fill="#223047"/>
      <rect x="15" y="8" width="18" height="17" fill="#ffd7a8"/>
      <rect x="18" y="15" width="4" height="4" fill="#111827"/>
      <rect x="28" y="15" width="4" height="4" fill="#111827"/>
      <rect x="18" y="25" width="14" height="5" fill="#152033" opacity="0.55"/>
      <rect x="11" y="31" width="26" height="32" fill="#B794F4"/>
      <rect x="6" y="35" width="8" height="24" fill="#B794F4" class="arm-left"/>
      <rect x="34" y="35" width="8" height="24" fill="#B794F4" class="arm-right"/>
      <rect x="14" y="63" width="8" height="19" fill="#151b28" class="leg-left"/>
      <rect x="27" y="63" width="8" height="19" fill="#151b28" class="leg-right"/>
      <rect x="11" y="82" width="12" height="5" fill="#0b0f17"/>
      <rect x="26" y="82" width="12" height="5" fill="#0b0f17"/>
    </g>
      </g>
    </g>
  </a>

  <a href="https://github.com/RJScripts-24/RJScripts-24/issues/new?template=query_template.yml&amp;labels=ask-agent,ask-devops&amp;title=Query%20for%20DevOps%20Agent%3A%20" xlink:href="https://github.com/RJScripts-24/RJScripts-24/issues/new?template=query_template.yml&amp;labels=ask-agent,ask-devops&amp;title=Query%20for%20DevOps%20Agent%3A%20" target="_blank" rel="noopener">
    <g class="station station-devops" transform="translate(790 430)">
      <rect class="hover-outline" x="-28" y="-98" width="236" height="302" rx="10" fill="transparent" stroke="#F6AD55" stroke-width="2" opacity="0" pointer-events="none"/>
      
      
      <rect x="22" y="-28" width="132" height="30" rx="3" fill="#0b0f17" stroke="#F6AD55" stroke-width="3"/>
      <text x="88" y="-8" class="agent-label">DEVOPS_AGENT</text>
      <text x="88" y="168" class="role-label">DevOps specialist - CI/CD, deploys, clou...</text>
      <g class="counter">
        <rect x="36" y="14" width="104" height="21" rx="10" fill="#101826" stroke="#2f3b52"/>
        <text x="88" y="29" class="counter-text">RESOLVED 0</text>
      </g>
      <circle cx="83" cy="11" r="34" fill="none" stroke="#F6AD55" stroke-width="3" class="idle-ring"/>
      <ellipse cx="86" cy="156" rx="68" ry="14" fill="#111827" opacity="0.42"/>
      <rect x="18" y="55" width="140" height="80" rx="8" fill="#8b4f2f" stroke="#2e1d18" stroke-width="5"/>
      <rect x="18" y="55" width="140" height="17" fill="#b8693d" opacity="0.82"/>
      <path d="M28 89 h120 M28 113 h120" stroke="#63331f" stroke-width="3" opacity="0.65"/>
      <rect x="36" y="126" width="18" height="26" fill="#4b2a1d"/>
      <rect x="123" y="126" width="18" height="26" fill="#4b2a1d"/>
      <rect x="54" y="74" width="64" height="38" rx="4" fill="#151b28" stroke="#293548" stroke-width="4"/>
      <rect x="61" y="81" width="50" height="24" fill="#F6AD55" class="screen-pulse"/>
      <rect x="78" y="113" width="18" height="8" fill="#293548"/>
      <rect x="61" y="122" width="51" height="8" fill="#151b28"/>
      <rect x="55" y="139" width="62" height="6" fill="#172033"/>
      <rect x="124" y="80" width="19" height="14" fill="#f5f1df"/>
      <path d="M127 86 h12 M127 91 h9" stroke="#334155" stroke-width="2"/>
      <circle cx="132" cy="111" r="8" fill="#67e8f9" opacity="0.72"/>
      <path d="M140 111 q9 -7 13 2" fill="none" stroke="#67e8f9" stroke-width="4" opacity="0.72"/>
      <rect x="128" y="66" width="45" height="82" fill="#243044"/><rect x="133" y="75" width="35" height="42" fill="#121826"/><rect x="139" y="82" width="23" height="26" fill="#F6AD55" class="screen-pulse"/>
      <g class="sprite-wrap" transform="translate(62 -20)">
        
    <g class="agent-sprite" transform="scale(1)">
      
      <rect x="12" y="2" width="24" height="23" fill="#223047"/>
      <rect x="15" y="8" width="18" height="17" fill="#ffd7a8"/>
      <rect x="18" y="15" width="4" height="4" fill="#111827"/>
      <rect x="28" y="15" width="4" height="4" fill="#111827"/>
      <rect x="18" y="25" width="14" height="5" fill="#152033" opacity="0.55"/>
      <rect x="11" y="31" width="26" height="32" fill="#F6AD55"/>
      <rect x="6" y="35" width="8" height="24" fill="#F6AD55" class="arm-left"/>
      <rect x="34" y="35" width="8" height="24" fill="#F6AD55" class="arm-right"/>
      <rect x="14" y="63" width="8" height="19" fill="#151b28" class="leg-left"/>
      <rect x="27" y="63" width="8" height="19" fill="#151b28" class="leg-right"/>
      <rect x="11" y="82" width="12" height="5" fill="#0b0f17"/>
      <rect x="26" y="82" width="12" height="5" fill="#0b0f17"/>
    </g>
      </g>
    </g>
  </a>

  
  <g class="walker" aria-label="Frontend agent walking between desks">
    <animateTransform attributeName="transform" type="translate" values="320 285; 405 285; 405 365; 690 365; 690 285; 320 285" dur="16s" begin="0s" repeatCount="indefinite"/>
    <ellipse cx="22" cy="91" rx="21" ry="6" fill="#0b1220" opacity="0.45"/>
    
    <g class="agent-sprite" transform="scale(0.9)">
      
      <rect x="12" y="2" width="24" height="23" fill="#243044"/>
      <rect x="15" y="8" width="18" height="17" fill="#c8f7ff"/>
      <rect x="18" y="15" width="4" height="4" fill="#111827"/>
      <rect x="28" y="15" width="4" height="4" fill="#111827"/>
      <rect x="18" y="25" width="14" height="5" fill="#152033" opacity="0.55"/>
      <rect x="11" y="31" width="26" height="32" fill="#61DAFB"/>
      <rect x="6" y="35" width="8" height="24" fill="#61DAFB" class="arm-left"/>
      <rect x="34" y="35" width="8" height="24" fill="#61DAFB" class="arm-right"/>
      <rect x="14" y="63" width="8" height="19" fill="#151b28" class="leg-left"/>
      <rect x="27" y="63" width="8" height="19" fill="#151b28" class="leg-right"/>
      <rect x="11" y="82" width="12" height="5" fill="#0b0f17"/>
      <rect x="26" y="82" width="12" height="5" fill="#0b0f17"/>
    </g>
  </g>
  
  <g class="walker" aria-label="Backend agent walking code route">
    <animateTransform attributeName="transform" type="translate" values="642 122; 610 235; 530 260; 452 235; 410 122; 642 122" dur="13s" begin="2s" repeatCount="indefinite"/>
    <ellipse cx="22" cy="91" rx="21" ry="6" fill="#0b1220" opacity="0.45"/>
    
    <g class="agent-sprite" transform="scale(0.9)">
      
      <rect x="12" y="2" width="24" height="23" fill="#243044"/>
      <rect x="15" y="8" width="18" height="17" fill="#c8f7ff"/>
      <rect x="18" y="15" width="4" height="4" fill="#111827"/>
      <rect x="28" y="15" width="4" height="4" fill="#111827"/>
      <rect x="18" y="25" width="14" height="5" fill="#152033" opacity="0.55"/>
      <rect x="11" y="31" width="26" height="32" fill="#68D391"/>
      <rect x="6" y="35" width="8" height="24" fill="#68D391" class="arm-left"/>
      <rect x="34" y="35" width="8" height="24" fill="#68D391" class="arm-right"/>
      <rect x="14" y="63" width="8" height="19" fill="#151b28" class="leg-left"/>
      <rect x="27" y="63" width="8" height="19" fill="#151b28" class="leg-right"/>
      <rect x="11" y="82" width="12" height="5" fill="#0b0f17"/>
      <rect x="26" y="82" width="12" height="5" fill="#0b0f17"/>
    </g>
  </g>
  
  <g class="walker" aria-label="DevOps agent walking infrastructure route">
    <animateTransform attributeName="transform" type="translate" values="870 365; 690 330; 575 405; 355 385; 205 365; 870 365" dur="19s" begin="4s" repeatCount="indefinite"/>
    <ellipse cx="22" cy="91" rx="21" ry="6" fill="#0b1220" opacity="0.45"/>
    
    <g class="agent-sprite" transform="scale(0.9)">
      
      <rect x="12" y="2" width="24" height="23" fill="#243044"/>
      <rect x="15" y="8" width="18" height="17" fill="#c8f7ff"/>
      <rect x="18" y="15" width="4" height="4" fill="#111827"/>
      <rect x="28" y="15" width="4" height="4" fill="#111827"/>
      <rect x="18" y="25" width="14" height="5" fill="#152033" opacity="0.55"/>
      <rect x="11" y="31" width="26" height="32" fill="#F6AD55"/>
      <rect x="6" y="35" width="8" height="24" fill="#F6AD55" class="arm-left"/>
      <rect x="34" y="35" width="8" height="24" fill="#F6AD55" class="arm-right"/>
      <rect x="14" y="63" width="8" height="19" fill="#151b28" class="leg-left"/>
      <rect x="27" y="63" width="8" height="19" fill="#151b28" class="leg-right"/>
      <rect x="11" y="82" width="12" height="5" fill="#0b0f17"/>
      <rect x="26" y="82" width="12" height="5" fill="#0b0f17"/>
    </g>
  </g>

  <g transform="translate(934 248)">
    <rect x="0" y="0" width="118" height="78" rx="12" fill="#f8fafc" stroke="#111827" stroke-width="4"/>
    <text x="59" y="28" class="bubble-copy">SEARCH</text>
    <text x="59" y="46" class="bubble-copy">MEMORY</text>
    <path d="M20 78 l-18 20 l34 -20" fill="#f8fafc" stroke="#111827" stroke-width="4"/>
  </g>
  <g transform="translate(986 348)">
    <rect x="0" y="0" width="58" height="52" rx="10" fill="#dbeafe" stroke="#111827" stroke-width="4"/>
    <rect x="14" y="-12" width="30" height="14" fill="#dbeafe" stroke="#111827" stroke-width="4"/>
    <circle cx="18" cy="23" r="4" fill="#111827"/><circle cx="40" cy="23" r="4" fill="#111827"/>
    <path d="M20 37 h18" stroke="#111827" stroke-width="4"/>
    <text x="29" y="72" class="tiny">MEMORY</text>
  </g>

  <rect x="30" y="593" width="1040" height="32" rx="10" fill="#0b1220" stroke="#26334a" stroke-width="3"/>
  <svg x="42" y="597" width="1016" height="28" overflow="hidden">
<<<<<<< HEAD
    <text x="0" y="20" class="ticker-text">🤖 Neural Office Online | Click an agent to ask a question  |  Click any agent to ask a question →  |  Open office/interactive-office.html for the in-page chatbox experience.</text>
=======
    <text x="0" y="20" class="ticker-text">Master Agent ingested new code chunks  |  Open office/interactive-office.html for the in-page chatbox experience.</text>
>>>>>>> 8a10b7b80baafb0cd1e4c58f6e2799d7db1fe899
  </svg>
</svg>