<svg xmlns="http://www.w3.org/2000/svg" xmlns:xlink="http://www.w3.org/1999/xlink" viewBox="0 0 1100 640" width="1100" height="640" role="img" aria-label="Neural Office commit conversation view">
  <defs>
    <linearGradient id="bgGrad" x1="0" y1="0" x2="1" y2="1">
      <stop offset="0" stop-color="#0b1220"/>
      <stop offset="1" stop-color="#251410"/>
    </linearGradient>
    <pattern id="grid" width="34" height="34" patternUnits="userSpaceOnUse">
      <path d="M0 0 H34 M0 0 V34" stroke="#26334a" stroke-width="1" opacity="0.35"/>
    </pattern>
  </defs>
  <style><![CDATA[
    .title { font: 900 32px Consolas,Monaco,monospace; fill:#f8fafc; letter-spacing:2px; text-anchor:middle; }
    .subtitle { font: 700 12px Consolas,Monaco,monospace; fill:#9fb3c8; text-anchor:middle; }
    .agent-label { font: 900 12px Consolas,Monaco,monospace; fill:#f8fafc; text-anchor:middle; }
    .tiny { font: 700 9px Consolas,Monaco,monospace; fill:#cbd5e1; text-anchor:middle; }
    .panel-title { font: 900 12px Consolas,Monaco,monospace; fill:#7dd3fc; }
    .panel-sub { font: 700 10px Consolas,Monaco,monospace; fill:#dbeafe; }
    .turn-speaker { font: 800 10px Consolas,Monaco,monospace; fill:#f8fafc; }
    .turn-text { font: 700 10px Consolas,Monaco,monospace; fill:#9fb3c8; }
    .ticker-text { font: 800 15px Consolas,Monaco,monospace; fill:#7dd3fc; animation: ticker 41.2s linear infinite; }
    .screen-pulse { animation: screenPulse 1.5s linear infinite; }
    .agent-sprite { animation: bob 2.1s linear infinite; }
    .arm-left { animation: armA 0.55s steps(2) infinite; transform-origin: 10px 36px; }
    .arm-right { animation: armB 0.55s steps(2) infinite; transform-origin: 38px 36px; }
    .leg-left { animation: legA 0.45s steps(2) infinite; transform-origin: 18px 64px; }
    .leg-right { animation: legB 0.45s steps(2) infinite; transform-origin: 31px 64px; }
    .hover-outline { transition: opacity .2s; }
    a:hover .hover-outline { opacity: 0.42; }
    .meeting-glow { animation: pulse 1.8s linear infinite; }
    @keyframes ticker { from { transform: translateX(1100px);} to { transform: translateX(-1600px);} }
    @keyframes screenPulse { 0%,100%{opacity:.6} 50%{opacity:1} }
    @keyframes bob { 0%,100%{transform:translateY(0)} 50%{transform:translateY(-3px)} }
    @keyframes armA { 0%,100%{transform:rotate(0)} 50%{transform:rotate(8deg)} }
    @keyframes armB { 0%,100%{transform:rotate(0)} 50%{transform:rotate(-8deg)} }
    @keyframes legA { 0%,100%{transform:rotate(0)} 50%{transform:rotate(10deg)} }
    @keyframes legB { 0%,100%{transform:rotate(10deg)} 50%{transform:rotate(0)} }
    @keyframes pulse { 0%,100%{opacity:.35} 50%{opacity:.75} }
    @media (prefers-reduced-motion: reduce) { * { animation: none !important; } }
  ]]></style>

  <rect width="1100" height="640" fill="url(#bgGrad)"/>
  <rect width="1100" height="640" fill="url(#grid)" opacity="0.55"/>
  <rect x="32" y="62" width="1036" height="514" rx="20" fill="none" stroke="#26334a" stroke-width="4"/>

  <text x="550" y="38" class="title">NEURAL OFFICE · COMMIT CHOREOGRAPHY</text>
  <text x="550" y="58" class="subtitle">Latest commit 5ee55... by rkj24 · agents discuss then return to desks</text>

  <a href="https://rjscripts-24.github.io/RJScripts-24/office/interactive-office.html" xlink:href="https://rjscripts-24.github.io/RJScripts-24/office/interactive-office.html" target="_blank" rel="noopener">
    <g>
      <circle cx="430" cy="300" r="58" fill="#0f1729" stroke="#3b4e69" stroke-width="3"/>
      <circle cx="430" cy="300" r="44" class="meeting-glow" fill="#67e8f9" opacity="0.25"/>
      <text x="430" y="297" class="tiny">SYNC</text>
      <text x="430" y="311" class="tiny">ZONE</text>
    </g>
  </a>

  
  <a href="https://rjscripts-24.github.io/RJScripts-24/office/interactive-office.html" xlink:href="https://rjscripts-24.github.io/RJScripts-24/office/interactive-office.html" target="_blank" rel="noopener">
    <g class="desk-group" transform="translate(110 120)">
      <rect class="hover-outline" x="-24" y="-60" width="220" height="220" rx="10" fill="transparent" stroke="#61DAFB" stroke-width="2" opacity="0"/>
      <rect x="24" y="-28" width="128" height="24" rx="3" fill="#0b0f17" stroke="#61DAFB" stroke-width="2"/>
      <text x="88" y="-11" class="agent-label">FRONTEND_AGENT</text>
      <rect x="18" y="55" width="140" height="80" rx="8" fill="#8b4f2f" stroke="#2e1d18" stroke-width="5"/>
      <rect x="55" y="74" width="64" height="38" rx="4" fill="#151b28" stroke="#293548" stroke-width="4"/>
      <rect x="62" y="82" width="50" height="22" fill="#61DAFB" class="screen-pulse"/>
      <ellipse cx="86" cy="155" rx="66" ry="12" fill="#111827" opacity="0.42"/>
      <text x="88" y="166" class="tiny">CI/CD note: I&apos;ll monitor wo...</text>
      <g transform="translate(62 -20)">
  <g class="agent-sprite" transform="scale(1)">
    <rect x="12" y="2" width="24" height="23" fill="#223047"/>
    <rect x="15" y="8" width="18" height="17" fill="#ffd7a8"/>
    <rect x="18" y="15" width="4" height="4" fill="#111827"/>
    <rect x="28" y="15" width="4" height="4" fill="#111827"/>
    <rect x="11" y="31" width="26" height="32" fill="#61DAFB"/>
    <rect x="6" y="35" width="8" height="24" fill="#61DAFB" class="arm-left"/>
    <rect x="34" y="35" width="8" height="24" fill="#61DAFB" class="arm-right"/>
    <rect x="14" y="63" width="8" height="19" fill="#151b28" class="leg-left"/>
    <rect x="27" y="63" width="8" height="19" fill="#151b28" class="leg-right"/>
  </g></g>
    </g>
  </a>

  <a href="https://rjscripts-24.github.io/RJScripts-24/office/interactive-office.html" xlink:href="https://rjscripts-24.github.io/RJScripts-24/office/interactive-office.html" target="_blank" rel="noopener">
    <g class="desk-group" transform="translate(790 120)">
      <rect class="hover-outline" x="-24" y="-60" width="220" height="220" rx="10" fill="transparent" stroke="#68D391" stroke-width="2" opacity="0"/>
      <rect x="24" y="-28" width="128" height="24" rx="3" fill="#0b0f17" stroke="#68D391" stroke-width="2"/>
      <text x="88" y="-11" class="agent-label">BACKEND_AGENT</text>
      <rect x="18" y="55" width="140" height="80" rx="8" fill="#8b4f2f" stroke="#2e1d18" stroke-width="5"/>
      <rect x="55" y="74" width="64" height="38" rx="4" fill="#151b28" stroke="#293548" stroke-width="4"/>
      <rect x="62" y="82" width="50" height="22" fill="#68D391" class="screen-pulse"/>
      <ellipse cx="86" cy="155" rx="66" ry="12" fill="#111827" opacity="0.42"/>
      <text x="88" y="166" class="tiny">I reviewed commit 5ee552f. ...</text>
      <g transform="translate(62 -20)">
  <g class="agent-sprite" transform="scale(1)">
    <rect x="12" y="2" width="24" height="23" fill="#223047"/>
    <rect x="15" y="8" width="18" height="17" fill="#ffd7a8"/>
    <rect x="18" y="15" width="4" height="4" fill="#111827"/>
    <rect x="28" y="15" width="4" height="4" fill="#111827"/>
    <rect x="11" y="31" width="26" height="32" fill="#68D391"/>
    <rect x="6" y="35" width="8" height="24" fill="#68D391" class="arm-left"/>
    <rect x="34" y="35" width="8" height="24" fill="#68D391" class="arm-right"/>
    <rect x="14" y="63" width="8" height="19" fill="#151b28" class="leg-left"/>
    <rect x="27" y="63" width="8" height="19" fill="#151b28" class="leg-right"/>
  </g></g>
    </g>
  </a>

  <a href="https://rjscripts-24.github.io/RJScripts-24/office/interactive-office.html" xlink:href="https://rjscripts-24.github.io/RJScripts-24/office/interactive-office.html" target="_blank" rel="noopener">
    <g class="desk-group" transform="translate(130 390)">
      <rect class="hover-outline" x="-24" y="-60" width="220" height="220" rx="10" fill="transparent" stroke="#B794F4" stroke-width="2" opacity="0"/>
      <rect x="24" y="-28" width="128" height="24" rx="3" fill="#0b0f17" stroke="#B794F4" stroke-width="2"/>
      <text x="88" y="-11" class="agent-label">DATABASE_AGENT</text>
      <rect x="18" y="55" width="140" height="80" rx="8" fill="#8b4f2f" stroke="#2e1d18" stroke-width="5"/>
      <rect x="55" y="74" width="64" height="38" rx="4" fill="#151b28" stroke="#293548" stroke-width="4"/>
      <rect x="62" y="82" width="50" height="22" fill="#B794F4" class="screen-pulse"/>
      <ellipse cx="86" cy="155" rx="66" ry="12" fill="#111827" opacity="0.42"/>
      <text x="88" y="166" class="tiny">Commit message says: &quot;Fixed...</text>
      <g transform="translate(62 -20)">
  <g class="agent-sprite" transform="scale(1)">
    <rect x="12" y="2" width="24" height="23" fill="#223047"/>
    <rect x="15" y="8" width="18" height="17" fill="#ffd7a8"/>
    <rect x="18" y="15" width="4" height="4" fill="#111827"/>
    <rect x="28" y="15" width="4" height="4" fill="#111827"/>
    <rect x="11" y="31" width="26" height="32" fill="#B794F4"/>
    <rect x="6" y="35" width="8" height="24" fill="#B794F4" class="arm-left"/>
    <rect x="34" y="35" width="8" height="24" fill="#B794F4" class="arm-right"/>
    <rect x="14" y="63" width="8" height="19" fill="#151b28" class="leg-left"/>
    <rect x="27" y="63" width="8" height="19" fill="#151b28" class="leg-right"/>
  </g></g>
    </g>
  </a>

  <a href="https://rjscripts-24.github.io/RJScripts-24/office/interactive-office.html" xlink:href="https://rjscripts-24.github.io/RJScripts-24/office/interactive-office.html" target="_blank" rel="noopener">
    <g class="desk-group" transform="translate(790 390)">
      <rect class="hover-outline" x="-24" y="-60" width="220" height="220" rx="10" fill="transparent" stroke="#F6AD55" stroke-width="2" opacity="0"/>
      <rect x="24" y="-28" width="128" height="24" rx="3" fill="#0b0f17" stroke="#F6AD55" stroke-width="2"/>
      <text x="88" y="-11" class="agent-label">DEVOPS_AGENT</text>
      <rect x="18" y="55" width="140" height="80" rx="8" fill="#8b4f2f" stroke="#2e1d18" stroke-width="5"/>
      <rect x="55" y="74" width="64" height="38" rx="4" fill="#151b28" stroke="#293548" stroke-width="4"/>
      <rect x="62" y="82" width="50" height="22" fill="#F6AD55" class="screen-pulse"/>
      <ellipse cx="86" cy="155" rx="66" ry="12" fill="#111827" opacity="0.42"/>
      <text x="88" y="166" class="tiny">Data implications look mana...</text>
      <g transform="translate(62 -20)">
  <g class="agent-sprite" transform="scale(1)">
    <rect x="12" y="2" width="24" height="23" fill="#223047"/>
    <rect x="15" y="8" width="18" height="17" fill="#ffd7a8"/>
    <rect x="18" y="15" width="4" height="4" fill="#111827"/>
    <rect x="28" y="15" width="4" height="4" fill="#111827"/>
    <rect x="11" y="31" width="26" height="32" fill="#F6AD55"/>
    <rect x="6" y="35" width="8" height="24" fill="#F6AD55" class="arm-left"/>
    <rect x="34" y="35" width="8" height="24" fill="#F6AD55" class="arm-right"/>
    <rect x="14" y="63" width="8" height="19" fill="#151b28" class="leg-left"/>
    <rect x="27" y="63" width="8" height="19" fill="#151b28" class="leg-right"/>
  </g></g>
    </g>
  </a>
  
  <g>
    <rect x="700" y="92" width="358" height="250" rx="12" fill="#111827" stroke="#2f3b52" stroke-width="3"/>
    <text x="720" y="118" class="panel-title">LATEST COMMIT DISCUSSION</text>
    <text x="720" y="136" class="panel-sub">Agents reviewed 5ee552f: Fixed the redirect issue 3</text>
    <text x="850" y="152" class="turn-speaker">BACKEND AGENT</text>
      <text x="850" y="167" class="turn-text">I reviewed commit 5ee552f. Main files touched...</text>
<text x="850" y="200" class="turn-speaker">DATABASE AGENT</text>
      <text x="850" y="215" class="turn-text">Commit message says: &quot;Fixed the redirect issu...</text>
<text x="850" y="248" class="turn-speaker">DEVOPS AGENT</text>
      <text x="850" y="263" class="turn-text">Data implications look manageable. We should ...</text>
<text x="850" y="296" class="turn-speaker">FRONTEND AGENT</text>
      <text x="850" y="311" class="turn-text">CI/CD note: I&apos;ll monitor workflow stability a...</text>
  </g>
  
      <g class="walker" aria-label="Backend Agent walker">
        <animateTransform attributeName="transform" type="translate" values="145 150; 430 290; 145 150" dur="14s" begin="0s" repeatCount="indefinite"/>
        <ellipse cx="22" cy="91" rx="20" ry="6" fill="#0b1220" opacity="0.45"/>
        
  <g class="agent-sprite" transform="scale(0.9)">
    <rect x="12" y="2" width="24" height="23" fill="#223047"/>
    <rect x="15" y="8" width="18" height="17" fill="#ffd7a8"/>
    <rect x="18" y="15" width="4" height="4" fill="#111827"/>
    <rect x="28" y="15" width="4" height="4" fill="#111827"/>
    <rect x="11" y="31" width="26" height="32" fill="#68D391"/>
    <rect x="6" y="35" width="8" height="24" fill="#68D391" class="arm-left"/>
    <rect x="34" y="35" width="8" height="24" fill="#68D391" class="arm-right"/>
    <rect x="14" y="63" width="8" height="19" fill="#151b28" class="leg-left"/>
    <rect x="27" y="63" width="8" height="19" fill="#151b28" class="leg-right"/>
  </g>
      </g>

      <g class="walker" aria-label="Database Agent walker">
        <animateTransform attributeName="transform" type="translate" values="790 150; 430 290; 790 150" dur="15s" begin="1s" repeatCount="indefinite"/>
        <ellipse cx="22" cy="91" rx="20" ry="6" fill="#0b1220" opacity="0.45"/>
        
  <g class="agent-sprite" transform="scale(0.9)">
    <rect x="12" y="2" width="24" height="23" fill="#223047"/>
    <rect x="15" y="8" width="18" height="17" fill="#ffd7a8"/>
    <rect x="18" y="15" width="4" height="4" fill="#111827"/>
    <rect x="28" y="15" width="4" height="4" fill="#111827"/>
    <rect x="11" y="31" width="26" height="32" fill="#B794F4"/>
    <rect x="6" y="35" width="8" height="24" fill="#B794F4" class="arm-left"/>
    <rect x="34" y="35" width="8" height="24" fill="#B794F4" class="arm-right"/>
    <rect x="14" y="63" width="8" height="19" fill="#151b28" class="leg-left"/>
    <rect x="27" y="63" width="8" height="19" fill="#151b28" class="leg-right"/>
  </g>
      </g>

  <rect x="30" y="598" width="1040" height="28" rx="10" fill="#0b1220" stroke="#26334a" stroke-width="2"/>
  <svg x="42" y="601" width="1016" height="24" overflow="hidden">
    <text x="0" y="16" class="ticker-text">Agents reviewed 5ee552f: Fixed the redirect issue 3 | 4 files changed, 47 insertions(+), 54 deletions(-) | Click preview to open interactive office</text>
  </svg>
</svg>